<svg width="29" height="29" viewBox="0 0 29 29" fill="none" xmlns="http://www.w3.org/2000/svg">
<path opacity="0.4" d="M19.3735 3.17041L9.83719 3.17041C5.70535 3.17041 2.93016 5.82768 2.93016 9.7844L2.93016 19.9068C2.93016 23.8635 5.70535 26.5208 9.83719 26.5208L19.3735 26.5208C23.5042 26.5208 26.2805 23.8623 26.2805 19.9056L26.2805 9.7844C26.2805 5.82768 23.5042 3.17041 19.3735 3.17041Z" fill="#130F26"/>
<path d="M13.6065 9.84944L9.21077 14.2253C8.88037 14.5545 8.88037 15.1371 9.21077 15.4675L13.6065 19.8434C13.9497 20.1843 14.5043 20.1831 14.8452 19.8399C15.1861 19.4966 15.1861 18.9432 14.8429 18.6012L11.9509 15.7209L19.3705 15.7209C19.855 15.7209 20.2462 15.3286 20.2462 14.8453C20.2462 14.3619 19.855 13.9696 19.3705 13.9696L11.9509 13.9696L14.8429 11.0905C15.0145 10.9189 15.0997 10.6947 15.0997 10.4694C15.0997 10.2464 15.0145 10.0222 14.8452 9.85178C14.5043 9.50969 13.9497 9.50853 13.6065 9.84944Z" fill="#130F26"/>
</svg>
