<svg width="29" height="29" viewBox="0 0 29 29" fill="none" xmlns="http://www.w3.org/2000/svg">
<path opacity="0.4" d="M26.2802 19.2328L26.2802 9.69651C26.2802 5.56466 23.6229 2.78947 19.6662 2.78947L9.54384 2.78947C5.58712 2.78947 2.92985 5.56466 2.92985 9.69651L2.92985 19.2328C2.92985 23.3635 5.58829 26.1398 9.54501 26.1398L19.6662 26.1398C23.6229 26.1398 26.2802 23.3635 26.2802 19.2328Z" fill="#130F26"/>
<path d="M19.6012 13.4658L15.2253 9.07009C14.8961 8.73968 14.3135 8.73968 13.9831 9.07009L9.60723 13.4658C9.26631 13.809 9.26748 14.3636 9.61073 14.7045C9.95398 15.0454 10.5074 15.0454 10.8495 14.7022L13.7297 11.8103V19.2298C13.7297 19.7144 14.122 20.1055 14.6054 20.1055C15.0887 20.1055 15.481 19.7144 15.481 19.2298V11.8103L18.3601 14.7022C18.5317 14.8738 18.7559 14.959 18.9812 14.959C19.2042 14.959 19.4284 14.8738 19.5988 14.7045C19.9409 14.3636 19.9421 13.809 19.6012 13.4658Z" fill="#130F26"/>
</svg>
